PathFileType   4   (X/Y/Z)
DataRate	CameraRate	NumFrames	NumMarkers	Units	OrigDataRate	OrigDataStartFrame	OrigNumFrames
120.0	120.0	6	37	mm	120.0	69	96
Frame#	Time	midhip	hip_r	hip_l	knee_r	knee_l	ankle_r	ankle_l	midasis	asis_r	asis_l	psis_r	psis_l	epicondLat_r	epicondLat_l	epicondMed_r	epicondMed_l	malleolusLat_r	malleolusLat_l	malleolusMedv_r	malleolusMedv_l	neck	subclavicle_r	subclavicle_l	sternalnotch	xyphoidprocess	thighwand_r	thighwand_l	upperleg1_r	upperleg1_l	upperleg2_r	upperleg2_l	shankwand_r	shankwand_l	lowerleg1_r	lowerleg1_l	toe_r	toe_l
 	 	X1	Y1	Z1	X2	Y2	Z2	X3	Y3	Z3	X4	Y4	Z4	X5	Y5	Z5	X6	Y6	Z6	X7	Y7	Z7	X8	Y8	Z8	X9	Y9	Z9	X10	Y10	Z10	X11	Y11	Z11	X12	Y12	Z12	X13	Y13	Z13	X14	Y14	Z14	X15	Y15	Z15	X16	Y16	Z16	X17	Y17	Z17	X18	Y18	Z18	X19	Y19	Z19	X20	Y20	Z20	X21	Y21	Z21	X22	Y22	Z22	X23	Y23	Z23	X24	Y24	Z24	X25	Y25	Z25	X26	Y26	Z26	X27	Y27	Z27	X28	Y28	Z28	X29	Y29	Z29	X30	Y30	Z30	X31	Y31	Z31	X32	Y32	Z32	X33	Y33	Z33	X34	Y34	Z34	X35	Y35	Z35	X36	Y36	Z36	X37	Y37	Z37

	69	0.65833	1352.385	635.992	-301.445	1347.407	647.330	-249.784	1364.017	648.901	-366.038	1449.120	359.376	-209.273	1348.137	344.713	-356.265	1304.251	106.219	-230.627	1307.939	57.859	-370.205	1401.430	708.578	-300.562	1389.090	707.410	-214.192	1413.770	709.745	-386.931	1265.818	729.643	-267.108	1275.291	729.604	-351.657	1431.221	359.014	-166.900	1348.672	343.143	-404.237	1470.303	357.013	-249.638	1334.276	346.496	-314.438	1288.371	112.882	-201.892	1298.329	60.708	-401.120	1311.809	110.661	-259.549	1306.751	56.330	-336.551	1344.161	1047.739	-323.527	1435.601	984.752	-269.569	1438.826	974.768	-358.354	1422.285	992.616	-308.258	1464.919	858.513	-296.728	1545.411	475.632	-196.308	1418.997	417.827	-458.038	1450.200	506.724	-177.349	1412.005	475.988	-378.910	1466.778	420.668	-173.483	1397.859	392.813	-358.711	1330.455	193.611	-119.821	1415.107	159.371	-343.325	1369.088	231.098	-178.338	1357.853	215.728	-361.547	1365.513	56.896	-206.525	1391.989	36.611	-377.627
	70	0.66667	1363.661	636.329	-300.731	1358.376	648.066	-249.487	1375.189	648.870	-365.719	1466.552	361.268	-210.125	1350.063	345.208	-356.729	1337.409	100.227	-228.219	1308.256	58.569	-370.305	1412.523	708.951	-300.569	1400.051	708.355	-214.346	1424.994	709.547	-386.792	1277.121	730.179	-266.913	1286.550	729.761	-351.453	1450.021	360.923	-167.200	1350.333	343.765	-404.706	1486.182	360.153	-250.969	1337.402	346.571	-315.304	1321.737	105.967	-199.173	1298.623	61.438	-401.211	1345.011	104.620	-257.074	1307.420	57.012	-336.692	1355.930	1047.984	-323.141	1447.365	984.226	-269.457	1450.410	975.057	-358.125	1434.008	992.541	-307.973	1476.279	858.166	-297.698	1560.563	480.877	-201.286	1422.699	416.901	-458.631	1465.411	509.998	-179.084	1417.262	474.866	-379.222	1484.096	424.312	-175.209	1401.666	392.111	-359.613	1360.420	189.321	-117.962	1416.070	159.781	-343.655	1395.831	228.759	-177.286	1358.929	216.372	-361.818	1402.250	55.430	-204.573	1392.300	36.623	-377.766
	71	0.67500	1374.932	636.217	-300.001	1369.472	648.326	-249.122	1386.318	648.423	-365.352	1483.353	362.658	-211.136	1352.225	345.698	-357.144	1371.121	94.441	-225.434	1308.582	59.323	-370.361	1423.624	708.907	-300.558	1411.142	708.834	-214.442	1436.105	708.979	-386.675	1288.382	730.202	-266.567	1297.661	729.451	-351.115	1468.316	362.444	-167.664	1352.312	344.387	-405.126	1501.306	362.671	-252.722	1340.124	347.042	-316.135	1355.712	99.325	-196.091	1298.938	62.219	-401.262	1374.649	99.582	-254.359	1307.801	57.759	-336.779	1367.818	1047.723	-322.640	1459.162	983.133	-269.377	1462.011	974.751	-357.889	1445.776	991.928	-307.710	1487.546	857.228	-298.652	1575.102	485.258	-206.738	1426.747	416.067	-459.107	1480.018	512.546	-180.909	1423.078	473.712	-379.179	1500.845	427.202	-177.305	1405.432	391.357	-360.264	1390.612	185.398	-115.968	1417.129	160.078	-343.909	1422.547	226.422	-176.223	1360.245	216.933	-361.962	1439.269	54.448	-202.325	1392.617	36.639	-377.878
	72	0.68333	1386.206	635.672	-299.275	1380.705	648.114	-248.716	1397.406	647.596	-364.966	1499.501	363.542	-212.276	1354.627	346.194	-357.504	1405.371	88.997	-222.287	1308.927	60.109	-370.372	1434.737	708.464	-300.549	1422.375	708.847	-214.499	1447.099	708.080	-386.598	1299.606	729.722	-266.059	1308.622	728.698	-350.641	1486.053	363.561	-168.286	1354.609	345.008	-405.490	1515.833	364.239	-254.227	1343.027	347.660	-316.793	1390.246	93.103	-192.679	1299.269	63.041	-401.265	1410.160	93.318	-251.199	1308.004	58.668	-336.778	1379.824	1046.999	-322.051	1471.020	981.566	-269.358	1473.652	973.918	-357.694	1457.581	990.802	-307.467	1498.796	855.795	-299.594	1589.001	488.695	-212.527	1431.142	415.303	-459.475	1494.075	514.287	-183.049	1429.037	472.648	-379.091	1516.982	429.604	-179.491	1409.375	390.634	-360.696	1420.865	181.976	-113.869	1418.269	160.270	-344.133	1448.652	224.369	-175.034	1361.610	217.425	-362.184	1476.517	54.045	-199.831	1392.921	36.660	-377.968
	73	0.69167	1397.492	634.718	-298.595	1392.074	647.446	-248.293	1408.442	646.427	-364.587	1514.983	363.918	-213.510	1357.283	346.699	-357.811	1440.110	84.047	-218.821	1309.303	60.915	-370.341	1445.856	707.649	-300.554	1433.748	708.403	-214.531	1457.964	706.895	-386.578	1310.803	728.761	-265.387	1319.445	727.534	-350.031	1503.185	364.259	-169.049	1357.220	345.624	-405.799	1529.386	364.873	-255.376	1346.602	348.307	-317.156	1425.259	87.453	-188.986	1299.619	63.895	-401.222	1444.849	87.840	-247.742	1308.296	59.597	-336.733	1391.944	1045.856	-321.594	1482.897	979.563	-269.375	1485.310	972.604	-357.611	1469.419	989.198	-307.256	1509.959	853.896	-300.566	1602.262	491.130	-218.511	1435.867	414.581	-459.754	1508.111	515.485	-185.450	1435.127	471.735	-379.079	1532.559	431.442	-181.691	1413.777	390.048	-360.969	1451.015	179.152	-111.692	1419.499	160.374	-344.363	1474.494	222.547	-173.768	1363.151	217.983	-362.545	1513.904	54.311	-197.154	1393.198	36.687	-378.039
	74	0.70000	1408.800	633.392	-297.988	1403.571	646.347	-247.871	1419.422	644.960	-364.233	1529.802	363.788	-214.791	1360.219	347.206	-358.068	1475.240	79.756	-215.109	1309.719	61.734	-370.279	1456.976	706.494	-300.582	1445.257	707.519	-214.544	1468.696	705.468	-386.621	1321.986	727.347	-264.559	1330.153	725.993	-349.290	1519.687	364.522	-169.923	1360.147	346.226	-406.058	1541.887	364.509	-256.122	1350.048	349.193	-317.425	1460.636	82.528	-185.087	1299.992	64.775	-401.140	1479.150	83.086	-243.886	1308.734	60.456	-336.665	1404.124	1044.337	-321.185	1494.770	977.113	-269.344	1497.001	970.792	-357.528	1481.294	987.155	-307.085	1521.017	851.519	-301.442	1614.908	492.537	-224.544	1440.888	413.869	-459.977	1522.033	516.133	-188.011	1441.575	470.716	-378.910	1547.516	432.440	-183.832	1418.206	389.384	-361.073	1480.917	176.986	-109.466	1420.837	160.400	-344.619	1500.322	220.892	-172.550	1364.883	218.556	-362.894	1551.304	55.329	-194.361	1393.439	36.717	-378.099
